<?xml version="1.0" encoding="UTF-8" standalone="no"?>
<!-- Created with Inkscape (http://www.inkscape.org/) -->

<svg
   width="132.29167mm"
   height="132.29175mm"
   viewBox="0 0 132.29167 132.29175"
   version="1.1"
   id="svg1"
   sodipodi:docname="logo-light.svg"
   inkscape:version="1.3.1 (9b9bdc1480, 2023-11-25, custom)"
   xmlns:inkscape="http://www.inkscape.org/namespaces/inkscape"
   xmlns:sodipodi="http://sodipodi.sourceforge.net/DTD/sodipodi-0.dtd"
   xmlns="http://www.w3.org/2000/svg"
   xmlns:svg="http://www.w3.org/2000/svg">
  <sodipodi:namedview
     id="namedview1"
     pagecolor="#505050"
     bordercolor="#eeeeee"
     borderopacity="1"
     inkscape:showpageshadow="0"
     inkscape:pageopacity="0"
     inkscape:pagecheckerboard="0"
     inkscape:deskcolor="#d1d1d1"
     inkscape:document-units="mm"
     inkscape:zoom="0.36346801"
     inkscape:cx="513.11256"
     inkscape:cy="-115.5535"
     inkscape:window-width="1874"
     inkscape:window-height="1016"
     inkscape:window-x="46"
     inkscape:window-y="27"
     inkscape:window-maximized="1"
     inkscape:current-layer="text1"
     showgrid="false" />
  <defs
     id="defs1" />
  <g
     inkscape:label="Layer 1"
     inkscape:groupmode="layer"
     id="layer1"
     transform="translate(113.66288,-269.42024)">
    <g
       id="text1"
       style="font-weight:bold;font-size:189.038px;font-family:Almarai;-inkscape-font-specification:'Almarai, Bold';fill:#121212;stroke-width:82.4364;stroke-linecap:round;stroke-linejoin:round;stroke-miterlimit:10.7;paint-order:markers stroke fill"
       transform="scale(1.0231266,0.97739614)"
       aria-label="ili">
      <g
         id="g20">
        <path
           style="fill:#1d1d1d;fill-opacity:1"
           d="M -33.399377,275.65102 V 411.00223 H -59.486585 V 295.79739 275.65102 Z"
           id="path18"
           sodipodi:nodetypes="cccccc" />
        <path
           style="fill:#7f1d1d;fill-opacity:1"
           d="m 18.207704,323.7099 -2e-6,73.63839 H -7.8795058 l 2e-6,-73.63839 z M 4.975063,289.30498 c 3.402679,0 6.238245,1.19724 8.506698,3.59173 2.394478,2.39448 3.591716,5.29306 3.591716,8.69574 0,3.40269 -1.197238,6.30127 -3.591716,8.69575 -2.268453,2.26846 -5.104019,3.40269 -8.506698,3.40269 -3.4026794,0 -6.3012586,-1.13423 -8.6957365,-3.40269 -2.3944777,-2.39448 -3.5917171,-5.29306 -3.5917171,-8.69575 0,-3.40268 1.1972394,-6.30126 3.5917171,-8.69574 2.3944779,-2.39449 5.2930571,-3.59173 8.6957365,-3.59173 z"
           id="path19"
           sodipodi:nodetypes="cccccscssscsss" />
        <path
           style="fill:#7f1d1d;fill-opacity:1"
           d="m -85.006454,323.7099 -2e-6,73.63839 H -111.09366 V 323.7099 Z m -13.23264,-34.40492 c 3.402678,0 6.238245,1.19724 8.506698,3.59173 2.394477,2.39448 3.591716,5.29306 3.591716,8.69574 0,3.40269 -1.197239,6.30127 -3.591716,8.69575 -2.268453,2.26846 -5.10402,3.40269 -8.506698,3.40269 -3.402676,0 -6.301256,-1.13423 -8.695736,-3.40269 -2.39447,-2.39448 -3.59171,-5.29306 -3.59171,-8.69575 0,-3.40268 1.19724,-6.30126 3.59171,-8.69574 2.39448,-2.39449 5.29306,-3.59173 8.695736,-3.59173 z"
           id="path20"
           sodipodi:nodetypes="cccccscssscsss" />
      </g>
    </g>
  </g>
</svg>
